<svg xmlns="http://www.w3.org/2000/svg" width="48" height="48" fill="none" viewBox="0 0 50 50"><path fill="url(#a)" fill-rule="evenodd" d="M35.839 12.534a1.784 1.784 0 0 1-1.607 1.945c-1.99.19-8.182 1.688-12.233 6.998-2.324 3.045-4.49 5.02-6.394 6.223-1.878 1.185-3.618 1.687-5.036 1.558a1.784 1.784 0 1 1 .323-3.553c.369.034 1.324-.085 2.809-1.022 1.05-.663 2.31-1.702 3.732-3.278-1.179-.735-2.886-1.45-4.739-1.655-2.415-.267-4.95.335-6.963 2.835-1.802 2.238-2.06 4.68-1.523 6.85.554 2.243 1.936 4.091 3.223 4.965a1.784 1.784 0 1 1-2.003 2.952c-2.074-1.408-3.935-4.035-4.683-7.06-.767-3.1-.387-6.722 2.207-9.944 2.925-3.632 6.762-4.516 10.134-4.144 2.579.285 4.959 1.304 6.621 2.426 4.855-5.827 11.723-7.468 14.187-7.702a1.784 1.784 0 0 1 1.945 1.606Zm3.456-.889a1.784 1.784 0 0 0-1.067 3.404c2.515.788 7.48 3.963 7.526 10.214a1.784 1.784 0 1 0 3.567-.026c-.062-8.43-6.736-12.561-10.026-13.592ZM22.437 33.817c-4.202 4.432-8.481 5.583-10.703 5.381a1.784 1.784 0 1 1 .323-3.552c1.03.093 5.169-.64 9.356-6.127 2.375-3.112 4.834-4.99 7.425-5.812 2.61-.829 5.116-.512 7.426.315a1.784 1.784 0 1 1-1.202 3.359c-1.802-.645-3.481-.802-5.145-.274-1.554.493-3.295 1.648-5.196 3.978.067.049.13.103.191.163 1.697 1.661 4.666 3.681 7.958 4.365 3.169.658 6.675.105 9.888-3.414a1.784 1.784 0 1 1 2.635 2.405c-4.155 4.551-8.987 5.387-13.249 4.502-4.123-.857-7.666-3.298-9.707-5.289Z" clip-rule="evenodd"/><defs><linearGradient id="a" x1="49.321" x2="24.339" y1="10.706" y2="53.574" gradientUnits="userSpaceOnUse"><stop stop-color="#283097"/><stop offset="1" stop-color="#00E3D7"/></linearGradient></defs></svg>