<svg xmlns="http://www.w3.org/2000/svg" width="48" height="48" fill="none" viewBox="0 0 37 50"><path fill="#F04E23" d="M36.82 31.9c.228-4.46-1.332-11.753-5.04-17.72-.1-.153-.266-.093-.232.067.246.906.306 2.553-1.134 2.453-2.56-.173.087-5.653-5.533-9.453a.12.12 0 0 0-.187.147c.387.733.614 3.02-.273 3.8-.713.626-2 .46-3.287-1.6a8.9 8.9 0 0 1 .127-9.387c.107-.173-.04-.24-.16-.2C13.368 2.56 11.82 11.68 10.174 15c-.273.56-.513.847-.986.82-1.407-.093-.394-3.1.093-4.146a.12.12 0 0 0-.193-.134A32.846 32.846 0 0 0 .814 29.374c0-.154-.066.546-.106 1.06 0 .2-.014.402-.04.606v.727a18.097 18.097 0 0 0 36.193.3.322.322 0 0 1-.04-.167Zm-18.16 8.407a8.393 8.393 0 1 1 .095-16.786 8.393 8.393 0 0 1-.094 16.786Z"/></svg>