<svg xmlns="http://www.w3.org/2000/svg" width="48" height="48" fill="none" viewBox="0 0 44 44"><g fill="#2DB56F" clip-path="url(#a)"><path d="M43.78 36.016a.833.833 0 0 0 .009-1.198l-3.734-3.735a.885.885 0 0 0-1.222-.013A19.014 19.014 0 0 1 11.97 4.205a.885.885 0 0 0-.014-1.221L8.221-.751a.833.833 0 0 0-1.198.01 26.005 26.005 0 0 0 36.756 36.757Z"/><path d="M33.021 30.188c.78-.45.529-2.346-.562-4.235-1.09-1.889-2.606-3.054-3.386-2.604-.78.45-.529 2.346.561 4.235 1.09 1.889 2.607 3.055 3.387 2.604ZM25.975 27.885c-.448 2.134-1.526 3.714-2.408 3.53-.881-.186-1.233-2.066-.785-4.2.448-2.134 1.526-3.714 2.408-3.53.881.186 1.233 2.066.785 4.2ZM15.94 27.537c.665.608 2.397-.203 3.87-1.81 1.473-1.61 2.128-3.406 1.464-4.014-.664-.609-2.397.202-3.87 1.81-1.472 1.608-2.128 3.405-1.463 4.014ZM15.921 20.326c-2.12.509-4.01.211-4.22-.665-.21-.875 1.338-1.998 3.459-2.507 2.12-.509 4.01-.212 4.22.664.21.876-1.338 1.999-3.459 2.508ZM13.294 10.006c-.5.749.564 2.338 2.377 3.55 1.814 1.212 3.69 1.587 4.19.838.5-.75-.564-2.339-2.377-3.55-1.814-1.212-3.69-1.587-4.19-.838Z"/></g><defs><clipPath id="a"><path fill="#fff" d="M0 0h44v44H0z"/></clipPath></defs></svg>